<svg width="24" height="24" viewBox="0 0 24 24" fill="none" xmlns="http://www.w3.org/2000/svg">
<path d="M12 22C15.3137 22 18 19.3137 18 16C18 12.6863 15.3137 10 12 10C8.68629 10 6 12.6863 6 16C6 19.3137 8.68629 22 12 22Z" fill="currentColor" fill-opacity="0.8"/>
<path d="M5 10C6.65685 10 8 8.65685 8 7C8 5.34315 6.65685 4 5 4C3.34315 4 2 5.34315 2 7C2 8.65685 3.34315 10 5 10Z" fill="currentColor"/>
<path d="M19 10C20.6569 10 22 8.65685 22 7C22 5.34315 20.6569 4 19 4C17.3431 4 16 5.34315 16 7C16 8.65685 17.3431 10 19 10Z" fill="currentColor"/>
<path d="M12 8C13.3807 8 14.5 6.88071 14.5 5.5C14.5 4.11929 13.3807 3 12 3C10.6193 3 9.5 4.11929 9.5 5.5C9.5 6.88071 10.6193 8 12 8Z" fill="currentColor"/>
</svg>
